<svg width="1348" height="1352" viewBox="0 0 1348 1352" fill="none" xmlns="http://www.w3.org/2000/svg" xmlns:xlink="http://www.w3.org/1999/xlink">
<path d="M1347.846,656.076C1347.846,956.798 1102.998,1200.582 800.96,1200.582C498.924,1200.582 254.074,956.798 254.074,656.076C254.074,355.352 498.924,111.568 800.96,111.568C1102.998,111.568 1347.846,355.352 1347.846,656.076Z" fill="url(#pattern_0_1_643)"/>
<path d="M1347.847,675.134C1347.847,1048.03 1055.819,1350.322 695.585,1350.322C335.351,1350.322 43.323,1048.03 43.323,675.134C43.323,302.236 335.351,-0.056 695.585,-0.056C1055.819,-0.056 1347.847,302.236 1347.847,675.134Z" stroke="#E31221" stroke-width="2.057" stroke-miterlimit="3.999327" stroke-dasharray="5.142 5.142 "/>
<path d="M491.503,43.504C491.503,67.562 471.796,87.065 447.485,87.065C423.175,87.065 403.468,67.562 403.468,43.504C403.468,19.447 423.175,-0.056 447.485,-0.056C471.796,-0.056 491.503,19.447 491.503,43.504Z" fill="#E31221"/>
<path d="M176.71,326.647C176.71,350.705 157.003,370.208 132.692,370.208C108.382,370.208 88.675,350.705 88.675,326.647C88.675,302.59 108.382,283.087 132.692,283.087C157.003,283.087 176.71,302.59 176.71,326.647Z" fill="#E31221"/>
<path d="M166.039,985.502C166.039,1009.56 146.332,1029.062 122.021,1029.062C97.711,1029.062 78.004,1009.56 78.004,985.502C78.004,961.444 97.711,941.941 122.021,941.941C146.332,941.941 166.039,961.444 166.039,985.502Z" fill="#E31221"/>
<path d="M446.152,1271.368C446.152,1295.426 426.444,1314.929 402.134,1314.929C377.823,1314.929 358.116,1295.426 358.116,1271.368C358.116,1247.31 377.823,1227.807 402.134,1227.807C426.444,1227.807 446.152,1247.31 446.152,1271.368Z" fill="#E31221"/>
<path d="M88.675,675.133C88.675,699.19 68.967,718.693 44.657,718.693C20.347,718.693 0.639,699.19 0.639,675.133C0.639,651.075 20.347,631.572 44.657,631.572C68.967,631.572 88.675,651.075 88.675,675.133Z" fill="#E31221"/>
</svg>
