<svg width="34" height="44" viewBox="0 0 34 44" fill="none" xmlns="http://www.w3.org/2000/svg" xmlns:xlink="http://www.w3.org/1999/xlink">
<path d="M31.648,7.667C28.49,2.371 22.338,-0.736 16.125,-0.255C15.896,-0.237 15.668,-0.214 15.439,-0.186C15.227,-0.162 15.015,-0.131 14.804,-0.098C9.773,0.709 5.863,3.242 3.178,7.456C1.143,10.648 0.373,14.145 0.885,17.885C1.233,20.427 2.143,22.794 3.283,25.086C5.086,28.713 7.416,32.012 9.987,35.156C11.69,37.237 13.477,39.245 15.386,41.148C15.615,41.377 15.846,41.605 16.08,41.83C16.411,42.151 16.746,42.469 17.085,42.784L17.363,43.017L17.604,42.784C17.748,42.653 17.897,42.525 18.038,42.389C21.481,39.059 24.636,35.493 27.413,31.616C29.643,28.503 31.592,25.241 32.875,21.635C34.596,16.8 34.31,12.13 31.648,7.667ZM17.378,23.264C16.942,23.264 16.515,23.229 16.098,23.16C15.863,23.122 15.631,23.074 15.404,23.014C12.14,22.173 9.727,19.293 9.731,15.882C9.733,12.417 12.128,9.541 15.416,8.703C15.645,8.645 15.879,8.597 16.116,8.56C16.539,8.491 16.975,8.456 17.419,8.457C21.575,8.467 24.966,11.815 24.959,15.902C24.953,19.934 21.528,23.26 17.378,23.264Z" fill="#FFFFFF"/>
</svg>
