<svg width="116" height="116" viewBox="0 0 116 116" fill="none" xmlns="http://www.w3.org/2000/svg" xmlns:xlink="http://www.w3.org/1999/xlink">
<g opacity="0.2">
<path d="M57.311,115.24C68.694,115.24 79.82,111.865 89.284,105.541C98.748,99.217 106.125,90.229 110.481,79.713C114.836,69.198 115.976,57.626 113.755,46.463C111.535,35.299 106.054,25.045 98.005,16.996C89.957,8.948 79.702,3.467 68.539,1.246C57.375,-0.975 45.804,0.165 35.288,4.521C24.772,8.877 15.784,16.253 9.461,25.717C3.137,35.181 -0.238,46.308 -0.238,57.69C-0.238,72.953 5.825,87.591 16.618,98.384C27.41,109.177 42.048,115.24 57.311,115.24ZM49.893,24.887L82.697,58.07L49.83,90.557L41.773,82.373L66.456,57.961L41.71,32.944L49.893,24.887Z" transform="rotate(360 57.311 57.69)" fill="#E31221"/>
</g>
</svg>
